<svg width="24" height="24" viewBox="0 0 24 24" fill="none" xmlns="http://www.w3.org/2000/svg">
  <path d="M21.35 11.1H12v2.82h5.34c-.23 1.32-.94 2.44-2 3.18v2.64h3.22c1.89-1.74 2.99-4.3 2.99-7.33 0-.63-.06-1.24-.2-1.83Z" fill="#4285F4"/>
  <path d="M12 22c2.7 0 4.96-.89 6.61-2.26l-3.22-2.64c-.9.6-2.06.96-3.39.96-2.61 0-4.82-1.76-5.61-4.12H3.07v2.59C4.7 19.98 8.07 22 12 22Z" fill="#34A853"/>
  <path d="M6.39 13.94A5.97 5.97 0 0 1 6.07 12c0-.67.12-1.32.32-1.94V7.47H3.07A9.994 9.994 0 0 0 2 12c0 1.63.39 3.17 1.07 4.53l3.32-2.59Z" fill="#FBBC05"/>
  <path d="M12 6.38c1.47 0 2.8.5 3.84 1.48l2.88-2.88C16.95 2.8 14.7 2 12 2 8.07 2 4.7 4.02 3.07 7.47l3.32 2.59C7.18 8.14 9.39 6.38 12 6.38Z" fill="#EA4335"/>
</svg>
